<svg preserveAspectRatio="none" width="100%" height="100%" overflow="visible" style="display: block;" viewBox="0 0 1667.5 619.82" fill="none" xmlns="http://www.w3.org/2000/svg">
<g id="Group">
<g id="Group_2">
</g>
<g id="Group_3">
</g>
<g id="Vector">
<path d="M483.071 282.994L460.1 273.29L463.895 264.148C464.621 262.398 465.551 261.035 466.685 260.06C467.815 259.075 469.079 258.496 470.477 258.324C471.871 258.142 473.327 258.371 474.845 259.012C476.371 259.656 477.545 260.543 478.369 261.671C479.185 262.796 479.623 264.111 479.684 265.617C479.747 267.116 479.41 268.755 478.671 270.536L476.13 276.657L472.227 275.008L474.439 269.679C474.827 268.744 475.022 267.913 475.025 267.187C475.027 266.461 474.837 265.84 474.454 265.323C474.074 264.799 473.506 264.378 472.751 264.059C471.988 263.736 471.281 263.619 470.629 263.708C469.98 263.788 469.392 264.085 468.862 264.597C468.329 265.099 467.867 265.821 467.475 266.764L466.104 270.068L485.104 278.094L483.071 282.994ZM477.811 266.063L490.655 264.72L488.41 270.128L475.618 271.348L477.811 266.063Z" fill="#FED966"/>
<path d="M491.438 263.772L474.751 255.309L477.078 250.64L493.765 259.103L491.438 263.772ZM473.769 251.873C473.423 252.567 472.898 253.046 472.194 253.312C471.487 253.566 470.811 253.53 470.166 253.203C469.529 252.88 469.104 252.358 468.891 251.637C468.675 250.905 468.74 250.192 469.086 249.498C469.432 248.804 469.959 248.329 470.666 248.075C471.37 247.809 472.041 247.838 472.678 248.162C473.323 248.489 473.753 249.018 473.969 249.75C474.181 250.471 474.115 251.178 473.769 251.873Z" fill="#FED966"/>
<path d="M499.804 248.958C498.834 250.631 497.663 251.873 496.292 252.684C494.917 253.483 493.423 253.842 491.807 253.761C490.185 253.676 488.524 253.131 486.824 252.128C485.165 251.15 483.898 249.966 483.022 248.578C482.146 247.189 481.7 245.699 481.683 244.107C481.671 242.509 482.127 240.911 483.052 239.316C483.674 238.243 484.425 237.345 485.304 236.623C486.18 235.889 487.158 235.377 488.238 235.085C489.322 234.787 490.49 234.747 491.744 234.966C492.991 235.18 494.3 235.692 495.671 236.501L496.9 237.226L488.938 250.96L486.167 249.325L491.667 239.837C491.023 239.457 490.371 239.262 489.71 239.251C489.05 239.24 488.434 239.403 487.864 239.739C487.291 240.064 486.814 240.555 486.433 241.211C486.036 241.896 485.842 242.596 485.85 243.311C485.855 244.015 486.034 244.67 486.387 245.277C486.733 245.879 487.222 246.371 487.855 246.754L490.489 248.308C491.287 248.779 492.062 249.037 492.815 249.083C493.572 249.122 494.267 248.96 494.901 248.595C495.535 248.23 496.071 247.67 496.509 246.914C496.8 246.413 496.996 245.913 497.097 245.414C497.199 244.915 497.195 244.434 497.087 243.973C496.979 243.511 496.767 243.083 496.452 242.688L499.143 238.677C500.014 239.475 500.63 240.421 500.991 241.515C501.349 242.598 501.436 243.777 501.252 245.051C501.064 246.314 500.582 247.616 499.804 248.958Z" fill="#FED966"/>
<path d="M504.086 240.692L489.142 229.39L492.104 225.405L494.74 227.399L494.871 227.222C494.229 226.246 493.928 225.2 493.966 224.084C494.005 222.969 494.404 221.901 495.162 220.88C495.931 219.846 496.841 219.16 497.893 218.821C498.939 218.478 499.986 218.513 501.035 218.929L501.152 218.772C500.524 217.816 500.253 216.743 500.339 215.55C500.423 214.347 500.876 213.192 501.698 212.086C502.743 210.679 504.036 209.873 505.576 209.669C507.115 209.452 508.695 209.958 510.316 211.184L520.366 218.785L517.266 222.957L508.034 215.973C507.203 215.346 506.415 215.097 505.67 215.228C504.924 215.359 504.303 215.758 503.807 216.426C503.243 217.185 503.043 217.958 503.207 218.747C503.364 219.53 503.832 220.216 504.61 220.805L513.736 227.707L510.724 231.761L501.403 224.711C500.67 224.157 499.929 223.928 499.178 224.025C498.432 224.115 497.804 224.503 497.293 225.19C496.948 225.655 496.754 226.162 496.71 226.712C496.665 227.25 496.769 227.784 497.024 228.314C497.272 228.839 497.672 229.31 498.223 229.727L507.193 236.511L504.086 240.692Z" fill="#FED966"/>
<path d="M526.358 223.282L507.866 205.305L511.41 201.595L513.669 203.791L513.829 203.623C513.624 203.106 513.485 202.51 513.409 201.835C513.333 201.148 513.412 200.429 513.645 199.679C513.877 198.917 514.356 198.156 515.082 197.396C516.027 196.407 517.156 195.744 518.468 195.407C519.775 195.065 521.181 195.143 522.686 195.641C524.186 196.133 525.706 197.129 527.247 198.627C528.747 200.085 529.781 201.561 530.347 203.054C530.913 204.536 531.062 205.953 530.795 207.306C530.527 208.647 529.901 209.833 528.916 210.863C528.219 211.593 527.506 212.098 526.777 212.378C526.054 212.652 525.357 212.775 524.686 212.747C524.008 212.713 523.402 212.6 522.865 212.408L522.755 212.522L529.952 219.519L526.358 223.282ZM518.109 208.158C518.908 208.936 519.713 209.502 520.522 209.857C521.331 210.212 522.105 210.34 522.842 210.239C523.574 210.133 524.23 209.776 524.809 209.17C525.394 208.557 525.723 207.878 525.795 207.13C525.862 206.377 525.701 205.602 525.314 204.805C524.926 203.997 524.342 203.213 523.559 202.452C522.783 201.698 521.996 201.143 521.198 200.787C520.401 200.432 519.633 200.305 518.895 200.405C518.158 200.506 517.493 200.865 516.903 201.483C516.318 202.096 515.983 202.77 515.899 203.506C515.821 204.236 515.97 205 516.345 205.797C516.721 206.594 517.309 207.381 518.109 208.158Z" fill="#FED966"/>
<path d="M534.799 204.782L522.364 190.722L526.23 187.243L538.664 201.303L534.799 204.782ZM522.703 187.162C522.128 187.679 521.466 187.931 520.714 187.917C519.964 187.891 519.348 187.606 518.868 187.063C518.393 186.526 518.188 185.883 518.253 185.134C518.319 184.373 518.639 183.734 519.214 183.217C519.789 182.7 520.451 182.454 521.202 182.48C521.953 182.494 522.566 182.77 523.041 183.307C523.522 183.85 523.729 184.502 523.663 185.262C523.598 186.012 523.278 186.645 522.703 187.162Z" fill="#FED966"/>
<path d="M547.923 194.265C546.42 195.419 544.878 196.095 543.295 196.293C541.714 196.48 540.19 196.222 538.722 195.519C537.25 194.81 535.934 193.688 534.776 192.152C533.607 190.603 532.882 189.022 532.602 187.408C532.316 185.787 532.475 184.237 533.079 182.755C533.685 181.262 534.739 179.939 536.242 178.785C537.745 177.631 539.287 176.96 540.868 176.774C542.451 176.576 543.978 176.831 545.45 177.541C546.918 178.243 548.236 179.369 549.405 180.917C550.563 182.453 551.285 184.031 551.571 185.652C551.852 187.266 551.689 188.819 551.084 190.312C550.48 191.793 549.426 193.111 547.923 194.265ZM545.512 191.029C546.196 190.504 546.619 189.871 546.783 189.128C546.941 188.38 546.879 187.575 546.595 186.713C546.318 185.847 545.851 184.977 545.193 184.105C544.535 183.233 543.829 182.548 543.075 182.048C542.327 181.543 541.574 181.268 540.817 181.222C540.059 181.177 539.339 181.417 538.655 181.942C537.965 182.472 537.534 183.116 537.363 183.875C537.198 184.629 537.254 185.439 537.531 186.305C537.814 187.167 538.285 188.033 538.943 188.905C539.601 189.777 540.304 190.466 541.051 190.971C541.806 191.471 542.565 191.741 543.329 191.781C544.094 191.81 544.822 191.559 545.512 191.029Z" fill="#FED966"/>
<path d="M573.002 186.515C571.528 187.324 570.154 187.813 568.879 187.982C567.616 188.154 566.486 188.062 565.491 187.705C564.495 187.348 563.671 186.786 563.017 186.018L566.917 183.137C567.224 183.398 567.593 183.595 568.026 183.73C568.459 183.865 568.949 183.893 569.498 183.816C570.058 183.741 570.669 183.522 571.331 183.159C572.321 182.615 573.004 181.924 573.382 181.083C573.77 180.246 573.658 179.26 573.046 178.125L571.413 175.098L571.221 175.203C571.269 175.772 571.205 176.371 571.027 176.999C570.849 177.628 570.516 178.243 570.029 178.846C569.542 179.448 568.864 179.988 567.995 180.465C566.763 181.141 565.487 181.469 564.166 181.45C562.848 181.419 561.568 180.971 560.327 180.107C559.089 179.232 557.976 177.878 556.988 176.047C555.977 174.172 555.435 172.44 555.362 170.85C555.29 169.261 555.587 167.878 556.254 166.702C556.928 165.522 557.867 164.602 559.07 163.941C559.988 163.437 560.843 163.173 561.633 163.149C562.419 163.118 563.126 163.232 563.756 163.492C564.388 163.741 564.928 164.031 565.374 164.363L565.545 164.269L564.046 161.489L568.564 159.009L577.578 175.722C578.337 177.13 578.631 178.496 578.458 179.819C578.286 181.143 577.723 182.374 576.768 183.512C575.824 184.654 574.569 185.655 573.002 186.515ZM567.578 176.225C568.311 175.823 568.832 175.299 569.14 174.656C569.451 174.001 569.556 173.254 569.455 172.416C569.356 171.567 569.046 170.657 568.523 169.687C568 168.718 567.411 167.951 566.757 167.389C566.099 166.819 565.407 166.477 564.681 166.363C563.956 166.25 563.226 166.394 562.493 166.797C561.745 167.207 561.225 167.758 560.933 168.449C560.638 169.132 560.552 169.906 560.676 170.769C560.8 171.632 561.115 172.534 561.623 173.475C562.138 174.43 562.715 175.184 563.355 175.736C563.997 176.277 564.674 176.599 565.385 176.703C566.099 176.795 566.83 176.636 567.578 176.225Z" fill="#FED966"/>
<path d="M572.826 150.533L582.872 173.522L578.132 175.63L568.086 152.641L572.826 150.533Z" fill="#FED966"/>
<path d="M585.874 172.302L579.272 154.676L584.118 152.829L590.72 170.455L585.874 172.302ZM580.856 151.476C580.135 151.751 579.427 151.746 578.731 151.46C578.039 151.164 577.566 150.676 577.311 149.995C577.059 149.322 577.097 148.647 577.424 147.972C577.756 147.286 578.283 146.805 579.003 146.531C579.723 146.256 580.429 146.267 581.121 146.563C581.817 146.848 582.291 147.327 582.543 148C582.798 148.681 582.76 149.365 582.427 150.051C582.1 150.727 581.576 151.202 580.856 151.476Z" fill="#FED966"/>
<path d="M612.309 150.524L607.766 151.927C607.593 151.548 607.338 151.232 607.002 150.976C606.664 150.713 606.26 150.538 605.789 150.45C605.324 150.353 604.8 150.374 604.216 150.516C603.436 150.705 602.818 151.031 602.361 151.495C601.903 151.951 601.739 152.453 601.869 153.002C601.973 153.439 602.235 153.767 602.654 153.985C603.072 154.203 603.725 154.302 604.612 154.28L608.058 154.152C609.911 154.09 611.367 154.36 612.427 154.961C613.487 155.562 614.175 156.523 614.489 157.843C614.774 159.044 614.674 160.182 614.189 161.259C613.711 162.333 612.925 163.272 611.833 164.075C610.746 164.868 609.414 165.455 607.838 165.837C605.433 166.419 603.398 166.378 601.731 165.714C600.07 165.04 598.909 163.858 598.248 162.167L603.14 160.705C603.466 161.408 603.962 161.885 604.631 162.135C605.297 162.378 606.079 162.39 606.978 162.172C607.861 161.959 608.53 161.616 608.984 161.144C609.445 160.662 609.614 160.146 609.491 159.596C609.373 159.136 609.09 158.805 608.642 158.603C608.192 158.392 607.554 158.303 606.727 158.335L603.432 158.464C601.573 158.536 600.105 158.236 599.028 157.563C597.959 156.888 597.262 155.867 596.936 154.499C596.656 153.323 596.73 152.232 597.158 151.229C597.594 150.223 598.333 149.35 599.374 148.61C600.423 147.869 601.724 147.31 603.276 146.934C605.57 146.378 607.492 146.43 609.041 147.089C610.598 147.746 611.687 148.891 612.309 150.524Z" fill="#FED966"/>
<path d="M616.693 170.675L613.639 144.951L618.709 144.338L619.083 147.48L619.312 147.453C619.478 146.922 619.743 146.371 620.108 145.8C620.48 145.219 620.991 144.713 621.642 144.28C622.3 143.838 623.148 143.554 624.186 143.429C625.538 143.266 626.828 143.472 628.056 144.049C629.283 144.617 630.323 145.574 631.177 146.921C632.03 148.259 632.584 150 632.838 152.144C633.086 154.231 632.961 156.033 632.464 157.551C631.973 159.06 631.2 160.253 630.145 161.13C629.097 161.998 627.869 162.517 626.46 162.687C625.462 162.808 624.593 162.744 623.853 162.495C623.122 162.246 622.505 161.897 622.002 161.447C621.499 160.989 621.099 160.514 620.804 160.022L620.647 160.041L621.836 170.053L616.693 170.675ZM619.784 153.696C619.916 154.809 620.184 155.761 620.588 156.552C620.992 157.343 621.512 157.935 622.146 158.328C622.78 158.713 623.511 158.855 624.34 158.755C625.177 158.654 625.858 158.337 626.383 157.804C626.906 157.263 627.268 156.56 627.467 155.696C627.674 154.823 627.712 153.842 627.583 152.754C627.455 151.674 627.193 150.742 626.798 149.958C626.403 149.174 625.888 148.585 625.254 148.192C624.619 147.8 623.879 147.654 623.034 147.756C622.197 147.858 621.515 148.166 620.989 148.683C620.47 149.199 620.107 149.885 619.898 150.742C619.69 151.599 619.652 152.584 619.784 153.696Z" fill="#FED966"/>
<path d="M640.03 162.029C638.839 162.009 637.78 161.783 636.855 161.351C635.93 160.91 635.203 160.272 634.673 159.438C634.151 158.595 633.901 157.552 633.921 156.309C633.938 155.262 634.143 154.386 634.535 153.681C634.928 152.976 635.456 152.412 636.12 151.99C636.783 151.567 637.534 151.253 638.373 151.046C639.219 150.839 640.105 150.698 641.031 150.623C642.119 150.527 642.996 150.435 643.662 150.348C644.328 150.253 644.813 150.105 645.116 149.906C645.42 149.706 645.574 149.406 645.581 149.006L645.582 148.932C645.595 148.155 645.361 147.55 644.882 147.117C644.411 146.684 643.733 146.46 642.85 146.445C641.918 146.43 641.173 146.626 640.615 147.034C640.057 147.434 639.684 147.943 639.495 148.561L634.712 148.09C634.973 146.949 635.468 145.967 636.194 145.145C636.921 144.315 637.852 143.684 638.986 143.253C640.128 142.814 641.445 142.607 642.936 142.631C643.974 142.648 644.965 142.787 645.909 143.048C646.861 143.31 647.702 143.704 648.431 144.231C649.169 144.759 649.746 145.431 650.162 146.247C650.579 147.056 650.778 148.02 650.76 149.14L650.553 161.847L645.641 161.766L645.683 159.154L645.538 159.151C645.228 159.735 644.818 160.248 644.309 160.689C643.799 161.122 643.189 161.46 642.48 161.702C641.771 161.935 640.954 162.044 640.03 162.029ZM641.572 158.448C642.334 158.46 643.009 158.32 643.598 158.027C644.187 157.726 644.651 157.317 644.992 156.799C645.333 156.281 645.509 155.691 645.52 155.029L645.552 153.029C645.388 153.133 645.164 153.227 644.879 153.313C644.602 153.39 644.288 153.462 643.939 153.53C643.589 153.59 643.239 153.645 642.89 153.697C642.541 153.74 642.224 153.78 641.939 153.816C641.33 153.896 640.797 154.03 640.34 154.219C639.883 154.408 639.526 154.668 639.269 154.999C639.012 155.322 638.88 155.728 638.872 156.219C638.861 156.93 639.107 157.478 639.612 157.863C640.124 158.24 640.778 158.434 641.572 158.448Z" fill="#FED966"/>
<path d="M652.505 162.018L652.852 158.922L663.21 148.61L663.225 148.476L654.453 147.476L654.918 143.331L669.888 145.039L669.51 148.415L659.739 158.51L659.724 158.644L668.568 159.653L668.104 163.797L652.505 162.018Z" fill="#FED966"/>
<path d="M667.546 164.032L671.09 145.532L676.176 146.524L672.631 165.024L667.546 164.032ZM674.102 143.646C673.346 143.498 672.746 143.119 672.301 142.507C671.867 141.889 671.718 141.223 671.854 140.509C671.99 139.802 672.373 139.248 673.003 138.846C673.643 138.438 674.34 138.307 675.097 138.455C675.853 138.602 676.448 138.985 676.883 139.603C677.327 140.214 677.482 140.873 677.346 141.58C677.209 142.294 676.821 142.856 676.181 143.264C675.551 143.666 674.858 143.793 674.102 143.646Z" fill="#FED966"/>
</g>
<path id="Vector_2" d="M1404.75 597.553C1722.83 596.523 1764.18 45.4991 1446.17 44.55C1311.76 44.55 1230.01 157.497 1230.01 316.286L1226 287.731C1180.89 57.3734 813.872 84.4743 815.658 320.466C804.12 135.606 522.907 134.031 511.791 321.051" stroke="var(--stroke-0, #FED966)" stroke-width="5" stroke-miterlimit="10"/>
<path id="Vector_3" d="M1434.12 577.016L1398.56 597.052L1434.12 617.21" stroke="var(--stroke-0, #FED966)" stroke-width="6" stroke-miterlimit="10"/>
</g>
</svg>
