<svg preserveAspectRatio="none" width="100%" height="100%" overflow="visible" style="display: block;" viewBox="0 0 73.4144 116.71" fill="none" xmlns="http://www.w3.org/2000/svg">
<g id="Vector">
<path d="M36.3044 77.7156C40.8687 77.7156 44.3423 78.7074 46.7251 80.6909C49.0744 82.7081 50.249 85.6498 50.249 89.5161L50.249 107.368C50.249 108.578 50.3329 109.503 50.5007 110.142C50.6685 110.814 51.0041 111.285 51.5075 111.554C51.9774 111.856 52.6654 112.041 53.5715 112.108L54.5783 112.209V114.226L46.3727 114.075H46.3224L38.1167 114.226V112.209L39.1236 112.108C40.0297 112.041 40.7345 111.856 41.2379 111.554C41.7077 111.285 42.0266 110.814 42.1944 110.142C42.3622 109.503 42.4461 108.578 42.4461 107.368V89.5161C42.4461 86.692 41.7581 84.5404 40.3821 83.0611C39.0061 81.6155 36.9924 80.8927 34.3411 80.8927C31.5556 80.8927 29.4245 81.6659 27.9478 83.2124C26.4376 84.7589 25.6824 86.961 25.6824 89.8186V107.368C25.6824 108.612 25.7831 109.553 25.9845 110.192C26.1859 110.864 26.5718 111.335 27.1423 111.604C27.6793 111.873 28.468 112.041 29.5084 112.108L31.0186 112.209V114.226L24.2225 114.126L17.5775 114.226V112.209L19.0877 112.108C20.1281 112.041 20.9336 111.873 21.5041 111.604C22.0411 111.335 22.4103 110.864 22.6116 110.192C22.813 109.553 22.9137 108.612 22.9137 107.368L22.9137 89.8186C22.9137 85.7507 24.0212 82.7081 26.2362 80.6909C28.4176 78.7074 31.7737 77.7156 36.3044 77.7156Z" fill="#2C2C2C"/>
<path d="M0 54.6316L24.8568 0H48.5575L73.4144 54.6316H63.0092L37.5743 26.4532H35.8401L10.4052 54.6316H0Z" fill="#2C2C2C"/>
<path d="M69.4035 58.6482L4.36587 57.9967L4.40748 53.8281L69.4452 54.4796L69.4035 58.6482Z" fill="#2C2C2C"/>
<path d="M0.0629268 116.71V54.4467H13.7558V57.2035H7.11071V113.953H13.7558V116.71H0.0629268Z" fill="#2C2C2C"/>
<path d="M73.0137 116.71H59.3209V113.953H65.966V57.2035H59.3209V54.4467H73.0137V116.71Z" fill="#2C2C2C"/>
</g>
</svg>
