<svg preserveAspectRatio="none" width="100%" height="100%" overflow="visible" style="display: block;" viewBox="0 0 308.067 169.8" fill="none" xmlns="http://www.w3.org/2000/svg">
<g id="Group 15">
<g id="Vector">
<path d="M143.81 168.957L139.661 148.877L145.141 147.826L145.873 151.369L146.116 151.322C146.305 150.063 146.833 148.997 147.7 148.124C148.567 147.251 149.703 146.68 151.107 146.41C152.528 146.138 153.81 146.25 154.951 146.747C156.09 147.235 156.947 148.031 157.521 149.135L157.737 149.094C157.922 147.862 158.497 146.796 159.462 145.896C160.433 144.984 161.68 144.383 163.2 144.091C165.135 143.72 166.829 144.016 168.281 144.979C169.741 145.931 170.696 147.497 171.146 149.676L173.936 163.18L168.2 164.28L165.636 151.874C165.406 150.758 164.927 149.98 164.2 149.54C163.473 149.099 162.65 148.967 161.732 149.143C160.689 149.343 159.941 149.822 159.489 150.579C159.036 151.327 158.917 152.225 159.133 153.27L161.667 165.533L156.092 166.602L153.505 154.078C153.301 153.093 152.847 152.365 152.141 151.893C151.445 151.42 150.624 151.273 149.679 151.455C149.04 151.577 148.497 151.844 148.049 152.257C147.608 152.658 147.297 153.166 147.115 153.781C146.931 154.387 146.916 155.061 147.069 155.801L149.56 167.855L143.81 168.957Z" fill="var(--fill-0, #F15C4A)"/>
<path d="M177.55 161.12L170.414 141.837L175.934 139.932L183.07 159.214L177.55 161.12ZM172.267 138.394C171.446 138.678 170.645 138.657 169.862 138.332C169.085 137.997 168.559 137.456 168.283 136.711C168.01 135.975 168.066 135.243 168.45 134.516C168.839 133.778 169.444 133.267 170.264 132.984C171.085 132.7 171.884 132.727 172.661 133.063C173.443 133.387 173.971 133.918 174.243 134.654C174.519 135.399 174.462 136.141 174.073 136.879C173.689 137.606 173.087 138.111 172.267 138.394Z" fill="var(--fill-0, #F15C4A)"/>
<path d="M194.229 155.04C193.013 155.602 191.828 155.899 190.674 155.931C189.516 155.954 188.459 155.689 187.504 155.135C186.553 154.57 185.776 153.678 185.172 152.46C184.664 151.433 184.432 150.482 184.475 149.604C184.519 148.727 184.77 147.92 185.23 147.185C185.69 146.45 186.292 145.778 187.037 145.167C187.79 144.552 188.616 143.983 189.516 143.458C190.569 142.833 191.411 142.316 192.042 141.905C192.668 141.487 193.085 141.107 193.292 140.765C193.499 140.423 193.505 140.056 193.311 139.663L193.275 139.591C192.898 138.829 192.358 138.355 191.655 138.167C190.96 137.976 190.162 138.089 189.26 138.506C188.309 138.947 187.653 139.501 187.293 140.17C186.929 140.832 186.807 141.509 186.926 142.203L181.846 144.08C181.539 142.842 181.546 141.647 181.869 140.492C182.189 139.329 182.814 138.261 183.746 137.288C184.681 136.304 185.911 135.459 187.433 134.755C188.492 134.265 189.565 133.916 190.652 133.709C191.747 133.498 192.797 133.471 193.8 133.627C194.811 133.78 195.732 134.152 196.564 134.743C197.391 135.326 198.077 136.167 198.621 137.265L204.791 149.725L199.777 152.044L198.509 149.483L198.36 149.551C198.34 150.27 198.182 150.969 197.888 151.647C197.589 152.317 197.142 152.943 196.545 153.525C195.944 154.098 195.172 154.603 194.229 155.04ZM193.992 150.803C194.77 150.444 195.383 149.978 195.832 149.405C196.277 148.825 196.542 148.2 196.627 147.53C196.712 146.86 196.594 146.2 196.272 145.551L195.301 143.59C195.187 143.771 195.008 143.973 194.762 144.195C194.52 144.405 194.239 144.629 193.919 144.865C193.595 145.094 193.269 145.319 192.941 145.539C192.609 145.752 192.309 145.946 192.039 146.12C191.462 146.495 190.99 146.886 190.622 147.293C190.254 147.699 190.023 148.127 189.929 148.574C189.831 149.013 189.902 149.473 190.14 149.955C190.485 150.652 191.01 151.065 191.714 151.192C192.422 151.308 193.181 151.179 193.992 150.803Z" fill="var(--fill-0, #F15C4A)"/>
</g>
<g id="Vector_2">
<path d="M4.63599 116.268L0.113685 111.892L26.9117 99.2739L32.3502 104.536L19.3237 130.479L14.8014 126.103L25.1598 106.387L25.0039 106.236L4.63599 116.268ZM12.1783 108.414L22.8603 118.749L19.5748 121.932L8.89278 111.597L12.1783 108.414Z" fill="var(--fill-0, #F15C4A)"/>
<path d="M21.5316 131.543L34.7983 115.631L39.3642 119.202L26.0975 135.115L21.5316 131.543ZM38.8021 115.374C38.1233 114.843 37.7223 114.17 37.5992 113.355C37.489 112.538 37.6901 111.823 38.2026 111.208C38.7093 110.6 39.3834 110.266 40.2249 110.205C41.0793 110.143 41.8459 110.378 42.5247 110.909C43.2036 111.44 43.5981 112.113 43.7083 112.93C43.8314 113.745 43.6396 114.456 43.1329 115.064C42.6204 115.679 41.937 116.017 41.0826 116.079C40.2411 116.14 39.4809 115.905 38.8021 115.374Z" fill="var(--fill-0, #F15C4A)"/>
<path d="M46.9736 138.595L53.6239 128.774L58.5299 131.894L46.9484 148.996L42.2383 146.001L44.3419 142.895L44.1577 142.778C43.0798 143.526 41.8703 143.909 40.5291 143.927C39.1957 143.95 37.8648 143.539 36.5366 142.695C35.3542 141.943 34.4899 141.022 33.9435 139.931C33.397 138.84 33.1947 137.655 33.3364 136.375C33.4858 135.1 34.0091 133.792 34.9062 132.451L42.2803 121.561L47.1863 124.681L40.3852 134.724C39.7093 135.739 39.4491 136.715 39.6048 137.653C39.7605 138.591 40.3028 139.355 41.2318 139.946C41.823 140.322 42.4637 140.543 43.154 140.61C43.8494 140.67 44.5304 140.54 45.197 140.221C45.8714 139.906 46.4636 139.364 46.9736 138.595Z" fill="var(--fill-0, #F15C4A)"/>
<path d="M70.5857 137.446L68.6324 141.265L57.2201 135.776L59.1733 131.957L70.5857 137.446ZM64.0105 128.812L69.2664 131.34L60.5255 148.428C60.2854 148.897 60.1722 149.299 60.186 149.632C60.2038 149.958 60.3179 150.236 60.5282 150.466C60.7467 150.7 61.0328 150.902 61.3865 151.072C61.6332 151.191 61.8902 151.29 62.1573 151.368C62.4284 151.439 62.6359 151.495 62.7797 151.534L61.6714 155.714C61.3675 155.667 60.9506 155.581 60.4206 155.455C59.8866 155.337 59.2721 155.125 58.5772 154.821C57.2861 154.259 56.2592 153.562 55.4963 152.729C54.7417 151.901 54.3026 150.966 54.179 149.925C54.0555 148.884 54.3051 147.765 54.9278 146.568L64.0105 128.812Z" fill="var(--fill-0, #F15C4A)"/>
<path d="M75.4964 161.519C73.4757 160.838 71.8767 159.834 70.6994 158.507C69.5338 157.174 68.8191 155.626 68.5553 153.864C68.2945 152.093 68.5182 150.218 69.2262 148.238C69.9403 146.241 70.9633 144.63 72.2952 143.406C73.6301 142.173 75.1789 141.388 76.9416 141.051C78.7159 140.708 80.6134 140.878 82.6341 141.558C84.6548 142.239 86.2479 143.246 87.4135 144.579C88.5908 145.906 89.3098 147.455 89.5706 149.226C89.8344 150.988 89.6093 152.868 88.8952 154.865C88.1872 156.845 87.1657 158.451 85.8307 159.684C84.4988 160.909 82.9457 161.693 81.1714 162.035C79.4087 162.372 77.517 162.2 75.4964 161.519ZM77.0075 157.374C77.9268 157.684 78.7843 157.691 79.5801 157.395C80.3788 157.091 81.0918 156.551 81.7191 155.775C82.355 155.002 82.874 154.053 83.276 152.929C83.6781 151.805 83.8761 150.748 83.8703 149.759C83.8731 148.773 83.6582 147.92 83.2255 147.201C82.7927 146.482 82.1167 145.967 81.1975 145.658C80.2695 145.345 79.3975 145.338 78.5814 145.636C77.774 145.938 77.0523 146.475 76.4164 147.248C75.7891 148.024 75.2745 148.974 74.8725 150.098C74.4704 151.222 74.268 152.277 74.2652 153.264C74.271 154.253 74.4946 155.108 74.936 155.83C75.3891 156.547 76.0796 157.062 77.0075 157.374Z" fill="var(--fill-0, #F15C4A)"/>
<path d="M108.929 140.91L104.43 167.844L98.6407 166.927L103.14 139.992L108.929 140.91Z" fill="var(--fill-0, #F15C4A)"/>
<path d="M116.337 169.392C114.99 169.323 113.801 169.035 112.771 168.529C111.741 168.013 110.943 167.292 110.376 166.364C109.819 165.428 109.576 164.286 109.646 162.938C109.706 161.802 109.972 160.859 110.443 160.11C110.914 159.36 111.534 158.769 112.301 158.337C113.068 157.904 113.93 157.593 114.886 157.402C115.852 157.211 116.86 157.094 117.91 157.049C119.144 156.988 120.14 156.924 120.897 156.856C121.655 156.779 122.209 156.638 122.56 156.434C122.911 156.229 123.097 155.91 123.12 155.475L123.124 155.395C123.169 154.552 122.928 153.886 122.402 153.397C121.886 152.908 121.128 152.637 120.129 152.586C119.075 152.532 118.225 152.715 117.578 153.136C116.931 153.548 116.489 154.085 116.252 154.749L110.858 154.046C111.199 152.818 111.796 151.772 112.65 150.909C113.504 150.036 114.581 149.388 115.881 148.966C117.19 148.535 118.688 148.362 120.374 148.449C121.547 148.509 122.663 148.7 123.721 149.021C124.789 149.342 125.725 149.804 126.53 150.406C127.343 151.008 127.97 151.76 128.41 152.664C128.85 153.558 129.038 154.613 128.974 155.828L128.249 169.616L122.695 169.331L122.844 166.496L122.679 166.488C122.306 167.109 121.823 167.649 121.229 168.108C120.636 168.558 119.933 168.9 119.121 169.134C118.31 169.36 117.382 169.446 116.337 169.392ZM118.22 165.565C119.082 165.61 119.851 165.484 120.528 165.19C121.206 164.887 121.747 164.461 122.153 163.912C122.558 163.364 122.78 162.73 122.818 162.011L122.932 159.842C122.743 159.948 122.485 160.042 122.159 160.123C121.843 160.196 121.485 160.262 121.087 160.321C120.689 160.372 120.292 160.419 119.894 160.46C119.498 160.494 119.138 160.524 118.814 160.552C118.122 160.614 117.513 160.739 116.989 160.925C116.465 161.112 116.051 161.38 115.748 161.729C115.445 162.069 115.279 162.506 115.251 163.038C115.211 163.81 115.469 164.415 116.024 164.852C116.59 165.282 117.322 165.519 118.22 165.565Z" fill="var(--fill-0, #F15C4A)"/>
<path d="M225.038 137.248C223.287 138.479 221.511 139.178 219.71 139.345C217.91 139.499 216.19 139.17 214.548 138.357C212.913 137.539 211.467 136.292 210.208 134.616C208.934 132.918 208.153 131.192 207.867 129.437C207.583 127.67 207.797 125.986 208.511 124.385C209.219 122.777 210.438 121.366 212.166 120.151C213.657 119.103 215.16 118.448 216.675 118.185C218.189 117.923 219.629 118.037 220.995 118.528C222.361 119.019 223.558 119.881 224.586 121.114L220.113 124.258C219.365 123.52 218.532 123.089 217.612 122.966C216.695 122.831 215.802 123.068 214.934 123.679C214.199 124.195 213.703 124.84 213.446 125.614C213.191 126.376 213.187 127.231 213.433 128.178C213.68 129.126 214.195 130.121 214.978 131.164C215.772 132.222 216.596 133.017 217.449 133.549C218.309 134.076 219.16 134.341 220.001 134.343C220.841 134.346 221.629 134.089 222.363 133.573C222.905 133.192 223.31 132.743 223.578 132.224C223.854 131.701 223.979 131.135 223.953 130.527C223.929 129.906 223.742 129.274 223.394 128.628L227.868 125.484C228.744 126.802 229.225 128.167 229.311 129.58C229.399 130.98 229.089 132.34 228.381 133.662C227.673 134.984 226.559 136.179 225.038 137.248Z" fill="var(--fill-0, #F15C4A)"/>
<path d="M242.326 123.205C240.763 124.615 239.102 125.512 237.341 125.897C235.582 126.269 233.836 126.154 232.104 125.553C230.365 124.945 228.757 123.874 227.279 122.339C225.788 120.79 224.794 119.159 224.296 117.444C223.791 115.723 223.796 114.029 224.309 112.363C224.823 110.683 225.861 109.139 227.424 107.729C228.986 106.319 230.647 105.428 232.407 105.056C234.167 104.671 235.917 104.783 237.655 105.39C239.387 105.992 240.998 107.066 242.489 108.614C243.967 110.15 244.959 111.778 245.463 113.499C245.961 115.214 245.953 116.911 245.439 118.59C244.926 120.256 243.888 121.795 242.326 123.205ZM239.245 119.966C239.956 119.325 240.361 118.594 240.462 117.774C240.556 116.948 240.395 116.084 239.978 115.183C239.569 114.276 238.944 113.387 238.105 112.515C237.266 111.644 236.393 110.978 235.487 110.519C234.588 110.054 233.709 109.838 232.851 109.871C231.993 109.903 231.208 110.241 230.497 110.882C229.78 111.529 229.367 112.272 229.26 113.111C229.159 113.944 229.313 114.813 229.723 115.72C230.139 116.621 230.767 117.507 231.607 118.379C232.446 119.251 233.315 119.919 234.214 120.384C235.12 120.844 236.006 121.054 236.871 121.015C237.736 120.963 238.527 120.614 239.245 119.966Z" fill="var(--fill-0, #F15C4A)"/>
<path d="M252.766 112.955L236.261 100.129L239.754 95.912L242.666 98.175L242.821 97.9881C242.129 96.9042 241.825 95.7573 241.909 94.5476C241.993 93.3379 242.482 92.193 243.377 91.1129C244.283 90.0189 245.337 89.3075 246.54 88.9787C247.735 88.6444 248.919 88.7222 250.091 89.212L250.229 89.0458C249.553 87.9855 249.284 86.8096 249.424 85.5182C249.562 84.2143 250.116 82.9772 251.085 81.8071C252.318 80.3184 253.81 79.4915 255.56 79.3264C257.308 79.1488 259.078 79.7559 260.869 81.1477L271.969 89.7739L268.312 94.188L258.115 86.2632C257.198 85.5506 256.316 85.2515 255.467 85.3661C254.619 85.4806 253.902 85.891 253.317 86.5972C252.651 87.4004 252.397 88.233 252.555 89.095C252.705 89.9515 253.21 90.7137 254.069 91.3818L264.148 99.2147L260.595 103.504L250.301 95.5042C249.492 94.8751 248.661 94.5991 247.808 94.6761C246.961 94.7463 246.236 95.1448 245.634 95.8719C245.227 96.3635 244.989 96.9068 244.919 97.5019C244.849 98.0845 244.948 98.6682 245.218 99.2529C245.48 99.8322 245.915 100.358 246.524 100.832L256.431 108.531L252.766 112.955Z" fill="var(--fill-0, #F15C4A)"/>
<path d="M272.953 70.6231L262.546 64.5498L265.565 59.6892L283.69 70.2658L280.791 74.9324L277.498 73.0113L277.385 73.1938C278.201 74.2091 278.646 75.3652 278.719 76.662C278.797 77.9512 278.428 79.2538 277.61 80.5697C276.882 81.7412 275.967 82.6112 274.863 83.1798C273.76 83.7485 272.545 83.9877 271.218 83.8976C269.896 83.7998 268.525 83.3416 267.104 82.5229L255.564 75.7886L258.583 70.928L269.227 77.139C270.301 77.7557 271.319 77.9715 272.281 77.7865C273.243 77.6014 274.01 77.0487 274.581 76.1283C274.945 75.5426 275.148 74.9146 275.189 74.2443C275.222 73.5694 275.061 72.9153 274.704 72.2821C274.352 71.6413 273.768 71.0883 272.953 70.6231Z" fill="var(--fill-0, #F15C4A)"/>
<path d="M277.028 56.301L288.1 61.338L285.615 66.4753L266.464 57.7627L268.832 52.8666L272.211 54.4038L272.316 54.1867C271.401 53.27 270.852 52.1818 270.671 50.9221C270.481 49.6586 270.718 48.3394 271.383 46.9647C272.005 45.6784 272.839 44.6892 273.883 43.9972C274.928 43.3052 276.119 42.9397 277.456 42.9007C278.785 42.8579 280.193 43.1749 281.681 43.8518L293.875 49.3993L291.39 54.5366L280.144 49.4202C278.976 48.879 277.921 48.7524 276.981 49.0406C276.032 49.3249 275.309 49.9816 274.811 51.0107C274.476 51.7021 274.335 52.3831 274.386 53.0536C274.44 53.7161 274.691 54.3303 275.137 54.8962C275.579 55.4504 276.209 55.9186 277.028 56.301Z" fill="var(--fill-0, #F15C4A)"/>
<path d="M295.095 45.8243L275.342 38.485L277.433 33.1853L297.186 40.5246L295.095 45.8243ZM273.846 34.8767C273.535 35.6646 272.998 36.2402 272.236 36.6035C271.468 36.9553 270.702 36.9894 269.939 36.7059C269.185 36.4256 268.647 35.9073 268.326 35.1509C268 34.3831 267.993 33.6052 268.303 32.8173C268.614 32.0294 269.154 31.4595 269.922 31.1077C270.684 30.7444 271.443 30.7029 272.197 30.9832C272.96 31.2667 273.505 31.7924 273.831 32.5603C274.152 33.3166 274.157 34.0888 273.846 34.8767Z" fill="var(--fill-0, #F15C4A)"/>
<path d="M282.225 19.1465L286.422 20.4509L282.552 32.1873L278.355 30.8829L282.225 19.1465ZM274.408 26.7184L276.19 21.3133L294.969 27.1505C295.485 27.3108 295.912 27.3597 296.251 27.2971C296.581 27.2318 296.848 27.0815 297.05 26.8462C297.256 26.6024 297.419 26.2986 297.539 25.9349C297.623 25.6811 297.684 25.4206 297.724 25.1532C297.756 24.8832 297.78 24.6764 297.799 24.5329L302.236 24.975C302.234 25.2728 302.209 25.6847 302.161 26.2106C302.122 26.7393 302 27.3587 301.794 28.0689C301.417 29.3879 300.862 30.4741 300.127 31.3276C299.395 32.1726 298.508 32.7313 297.464 33.0036C296.42 33.2759 295.239 33.2027 293.922 32.7839L274.408 26.7184Z" fill="var(--fill-0, #F15C4A)"/>
<path d="M305.563 15.0105C305.255 16.2813 304.752 17.3615 304.055 18.2511C303.349 19.1386 302.475 19.7685 301.432 20.1406C300.382 20.5021 299.178 20.527 297.82 20.2154C296.677 19.953 295.766 19.5295 295.087 18.9448C294.409 18.3602 293.918 17.6634 293.614 16.8545C293.311 16.0457 293.147 15.1684 293.122 14.2226C293.099 13.2682 293.158 12.287 293.299 11.2789C293.455 10.0918 293.566 9.13154 293.631 8.39807C293.687 7.66256 293.642 7.10924 293.496 6.73814C293.351 6.36703 293.059 6.13126 292.621 6.03081L292.541 6.01236C291.692 5.81761 290.972 5.92627 290.382 6.33836C289.794 6.7418 289.385 7.41465 289.156 8.35693C288.915 9.35107 288.95 10.1943 289.263 10.8867C289.567 11.5771 290.036 12.0952 290.668 12.4412L288.999 17.4519C287.811 16.9055 286.854 16.1474 286.128 15.1776C285.392 14.2057 284.925 13.0626 284.725 11.7482C284.519 10.4231 284.609 8.9653 284.995 7.37467C285.264 6.26815 285.655 5.23992 286.169 4.28998C286.684 3.33141 287.319 2.52336 288.073 1.86584C288.829 1.19967 289.705 0.738978 290.7 0.483757C291.687 0.226487 292.792 0.238277 294.016 0.519127L307.899 3.70483L306.626 8.94353L303.772 8.28856L303.735 8.44416C304.3 8.91162 304.763 9.46971 305.125 10.1184C305.477 10.7651 305.7 11.4963 305.794 12.3119C305.88 13.1255 305.803 14.025 305.563 15.0105ZM302.008 12.5245C302.205 11.7119 302.214 10.9565 302.035 10.2582C301.847 9.55787 301.51 8.96489 301.024 8.47926C300.538 7.99362 299.934 7.66778 299.21 7.50173L297.026 7.00051C297.1 7.20005 297.149 7.46238 297.174 7.7875C297.192 8.10192 297.196 8.45421 297.186 8.84439C297.168 9.23251 297.144 9.61961 297.117 10.0057C297.08 10.3897 297.047 10.7381 297.018 11.0509C296.959 11.7218 296.978 12.324 297.075 12.8573C297.172 13.3906 297.371 13.8332 297.672 14.1853C297.964 14.5353 298.378 14.7717 298.914 14.8947C299.692 15.0731 300.352 14.9371 300.895 14.4868C301.431 14.0258 301.802 13.3717 302.008 12.5245ZM282.194 8.53898L275.137 11.0948L276.374 5.99875L283.142 4.63588L282.194 8.53898Z" fill="var(--fill-0, #F15C4A)"/>
</g>
</g>
</svg>
