<svg preserveAspectRatio="none" width="100%" height="100%" overflow="visible" style="display: block;" viewBox="0 0 50.8253 76.8767" fill="none" xmlns="http://www.w3.org/2000/svg">
<g id="Vector">
<path d="M50.4931 17.202C48.7387 20.1392 46.5124 22.7052 43.8144 24.9002C41.117 27.0589 38.1626 28.7238 34.9514 29.8948C31.7047 31.0652 28.3805 31.6183 24.9789 31.5542C21.5772 31.49 18.2753 30.812 15.073 29.5201C11.8708 28.2281 8.97855 26.453 6.39632 24.1947C3.77932 21.8996 1.64722 19.2513 0 16.25L1.23717 15.4583C2.21036 16.5271 3.53952 17.5121 5.22465 18.4132C6.87435 19.3136 8.77404 20.1101 10.9237 20.8027C13.0734 21.4952 15.3675 22.0456 17.8059 22.4538C20.2088 22.8613 22.6505 23.0885 25.1308 23.1352C27.6112 23.182 30.0771 23.0474 32.5286 22.7314C34.9446 22.4147 37.2393 21.9508 39.4125 21.3398C41.5857 20.7288 43.5129 20.0044 45.1939 19.1668C46.9104 18.3298 48.2742 17.3956 49.2854 16.3642L50.4931 17.202Z" fill="#2C2C2C"/>
<path d="M36.7314 25.8248V28.7481L35.3359 28.8907C34.0335 29.0333 33.0567 29.2948 32.4055 29.675C31.7543 30.0553 31.3124 30.697 31.0798 31.6002C30.8472 32.5033 30.731 33.8105 30.731 35.5218V45.0762L44.4063 69.3187C45.104 70.5546 45.6854 71.4816 46.1506 72.0995C46.6157 72.7175 47.1041 73.1453 47.6158 73.3829C48.081 73.6681 48.6856 73.8345 49.4299 73.882L50.8253 74.0247V76.8767L39.4525 76.6628L27.3121 76.8767V74.0247L28.8471 73.882C32.5683 73.5493 32.9637 70.6735 30.0332 65.2546L20.8931 49.0691L25.0097 46.3596L14.8229 63.6859C12.9158 66.8232 12.032 69.2712 12.1716 71.03C12.2646 72.8363 13.3345 73.787 15.3811 73.882L17.7534 74.0247V76.8767L8.33412 76.7341L0.519651 76.8767L0.519651 74.0247L1.21737 73.9534C2.28721 73.8583 3.19425 73.6206 3.93848 73.2403C4.6362 72.8601 5.4037 72.0995 6.24096 70.9587C7.03171 69.8654 8.12481 68.1304 9.52025 65.7537L19.9163 48.2135L19.9163 35.5218C19.9163 33.8105 19.8 32.5033 19.5674 31.6002C19.3349 30.697 18.893 30.0553 18.2418 29.6751C17.544 29.2948 16.5672 29.0333 15.3113 28.8907L13.9159 28.7481L13.9159 25.8248L25.2887 26.0387H25.3585L36.7314 25.8248Z" fill="#2C2C2C"/>
<path d="M25.5379 0C27.259 -1.53757e-07 28.7009 0.570413 29.8638 1.71124C30.9801 2.8996 31.5383 4.32563 31.5383 5.98933C31.5383 7.65304 30.9569 9.03154 29.794 10.1248C28.6312 11.2657 27.2125 11.8361 25.5379 11.8361C23.9099 11.8361 22.5377 11.2657 21.4214 10.1248C20.2585 8.984 19.6771 7.60551 19.6771 5.98934C19.6771 4.32563 20.2585 2.8996 21.4214 1.71124C22.5377 0.570413 23.9099 1.45446e-07 25.5379 0Z" fill="#2C2C2C"/>
</g>
</svg>
