<svg preserveAspectRatio="none" width="100%" height="100%" overflow="visible" style="display: block;" viewBox="0 0 374.601 468.853" fill="none" xmlns="http://www.w3.org/2000/svg">
<path id="Vector" d="M374.181 372.429C374.301 372.591 374.421 372.753 374.541 372.915C331.223 432.836 263.74 466.706 193.953 468.752C192.851 468.792 191.729 468.813 190.627 468.833C188.263 468.853 185.878 468.873 183.494 468.813C181.069 468.772 178.625 468.711 176.201 468.59C139.935 466.827 103.528 456.415 70.0475 436.543C41.6959 419.709 18.1731 397.71 0 372.429C5.63024 365.076 10.8398 357.257 15.6285 349.032C63.215 267.133 54.0183 167.366 0.0801629 96.4055C44.0401 35.229 113.126 1.07545 184.255 0.0220773C186.64 -0.018437 189.044 0.00183991 191.428 0.0423542C193.692 0.0828684 195.957 0.163898 198.221 0.265184C234.647 1.92627 271.254 12.3384 304.895 32.3322C333.066 49.0443 356.448 70.8613 374.601 95.9396L374.241 96.4258C368.631 103.799 363.421 111.598 358.632 119.803C311.046 201.722 320.223 301.468 374.181 372.429Z" fill="var(--fill-0, #80ABC1)"/>
</svg>
