<svg preserveAspectRatio="none" width="100%" height="100%" overflow="visible" style="display: block;" viewBox="0 0 99.7682 76.8767" fill="none" xmlns="http://www.w3.org/2000/svg">
<g id="Vector">
<path d="M19.3178 0.198007L79.3384 0L79.3511 3.83675L19.3305 4.03476L19.3178 0.198007Z" fill="#2C2C2C"/>
<path d="M20.6079 73.04L80.6285 72.842L80.6412 76.6787L20.6206 76.8767L20.6079 73.04Z" fill="#2C2C2C"/>
<path d="M60.8313 35.1823V31.4693H79.8472V35.1823H60.8313Z" fill="#2C2C2C"/>
<path d="M60.8313 51.2978V47.5847H79.8472V51.2978H60.8313Z" fill="#2C2C2C"/>
<path d="M17.6016 35.1823V31.4693H36.6175V35.1823H17.6016Z" fill="#2C2C2C"/>
<path d="M17.6016 51.2978V47.5847H36.6175V51.2978H17.6016Z" fill="#2C2C2C"/>
<path d="M0 76.7989V0.393466H16.848V3.77643H8.67175V73.4159H16.848V76.7989H0Z" fill="#2C2C2C"/>
<path d="M47.7685 73.4366V13.4715H51.6089V73.4366H47.7685Z" fill="#2C2C2C"/>
<path d="M99.7682 76.7989H82.9203V73.4159H91.0965V3.77643H82.9203V0.393466H99.7682V76.7989Z" fill="#2C2C2C"/>
</g>
</svg>
