<svg preserveAspectRatio="none" width="100%" height="100%" overflow="visible" style="display: block;" viewBox="0 0 1052 172.433" fill="none" xmlns="http://www.w3.org/2000/svg">
<g id="Tondo-lab">
<path d="M44.6523 169.625V160.033L53.9549 159.565C58.141 159.253 61.3194 158.551 63.49 157.459C65.6606 156.211 67.1335 154.027 67.9087 150.908C68.839 147.788 69.3041 143.421 69.3041 137.806V10.7624H105.352V137.806C105.352 143.421 105.739 147.788 106.514 150.908C107.29 154.027 108.762 156.211 110.933 157.459C113.259 158.551 116.515 159.253 120.701 159.565L130.003 160.033V169.625L87.4441 168.923L44.6523 169.625ZM165.586 58.0235C160.314 48.6649 155.818 41.1 152.097 35.3288C148.376 29.5577 144.887 25.1903 141.632 22.2267C138.531 19.1072 135.275 17.0015 131.864 15.9097C128.453 14.8178 124.422 14.2719 119.771 14.2719H56.0479C50.9315 14.2719 46.5128 14.8178 42.7918 15.9097C39.2258 16.8455 35.8149 18.7953 32.559 21.7588C29.4581 24.5664 26.0472 28.8558 22.3262 34.6269C18.6051 40.3981 14.0314 48.1189 8.60487 57.7895L0 56.6197L5.8141 20.823L8.37231 2.10569L76.0485 2.80759H98.1421L166.051 2.10569L168.609 20.823L174.423 56.6197L165.586 58.0235Z" fill="var(--fill-0, #FED966)"/>
<path d="M218.732 172.199C207.414 172.199 197.259 169.781 188.266 164.946C179.429 160.11 172.374 153.559 167.103 145.293C161.986 136.87 159.428 127.355 159.428 116.749C159.428 106.142 161.986 96.7058 167.103 88.439C172.374 80.0163 179.429 73.3872 188.266 68.5519C197.259 63.7167 207.414 61.299 218.732 61.299C230.05 61.299 240.128 63.7167 248.965 68.5519C257.958 73.3872 265.012 80.0163 270.129 88.439C275.4 96.7058 278.036 106.142 278.036 116.749C278.036 127.355 275.4 136.87 270.129 145.293C265.012 153.559 257.958 160.11 248.965 164.946C240.128 169.781 230.05 172.199 218.732 172.199ZM218.732 163.776C226.484 163.776 232.453 159.721 236.639 151.61C240.981 143.499 243.151 131.879 243.151 116.749C243.151 101.619 240.981 89.9988 236.639 81.888C232.453 73.7772 226.484 69.7218 218.732 69.7218C210.98 69.7218 204.933 73.7772 200.592 81.888C196.406 89.9988 194.313 101.619 194.313 116.749C194.313 131.879 196.406 143.499 200.592 151.61C204.933 159.721 210.98 163.776 218.732 163.776Z" fill="var(--fill-0, #FED966)"/>
<path d="M354.449 169.625V161.67L359.566 160.968C361.736 160.656 363.442 159.799 364.682 158.395C366.078 156.835 367.085 154.573 367.706 151.61C368.326 148.49 368.636 144.591 368.636 139.911V96.3939C368.636 89.8428 367.318 85.0075 364.682 81.888C362.047 78.6125 358.015 76.9747 352.589 76.9747C347.628 76.9747 343.054 78.4565 338.868 81.4201C334.837 84.3836 331.038 88.9849 327.472 95.224V81.888C332.433 75.025 338.248 69.8778 344.914 66.4463C351.581 63.0148 358.868 61.299 366.775 61.299C377.318 61.299 385.691 64.1846 391.892 69.9557C398.094 75.7269 401.195 83.4478 401.195 93.1183V139.911C401.195 145.215 401.505 149.348 402.125 152.312C402.745 155.119 403.908 157.147 405.614 158.395C407.319 159.487 409.877 160.344 413.288 160.968L417.474 161.67V169.625L386.078 168.923L354.449 169.625ZM280.727 169.625V161.67L284.913 160.968C288.324 160.344 290.882 159.487 292.587 158.395C294.293 157.147 295.456 155.119 296.076 152.312C296.696 149.348 297.006 145.215 297.006 139.911V91.9485C297.006 84.9295 295.921 79.9383 293.75 76.9747C291.735 74.0111 288.246 72.5294 283.285 72.5294H280.727V64.5745C290.959 64.5745 299.719 64.4185 307.006 64.1066C314.293 63.6387 321.503 62.8588 328.635 61.7669V79.3144H329.565V139.911C329.565 145.371 329.798 149.582 330.263 152.546C330.728 155.353 331.581 157.381 332.821 158.629C334.216 159.877 336.154 160.656 338.635 160.968L343.752 161.67V169.625L312.123 168.923L280.727 169.625Z" fill="var(--fill-0, #FED966)"/>
<path d="M466.211 172.199C456.753 172.199 448.459 169.937 441.327 165.414C434.195 160.734 428.613 154.261 424.582 145.995C420.706 137.572 418.768 127.823 418.768 116.749C418.768 105.674 420.706 96.0039 424.582 87.7371C428.613 79.3144 434.195 72.8413 441.327 68.318C448.459 63.6387 456.753 61.299 466.211 61.299C473.963 61.299 481.25 63.0148 488.072 66.4463C495.049 69.7218 502.103 75.025 509.235 82.3559L506.445 88.439C499.933 83.2918 494.429 79.6263 489.933 77.4426C485.591 75.259 481.405 74.1671 477.374 74.1671C469.777 74.1671 463.885 77.9106 459.699 85.3975C455.668 92.7284 453.653 103.179 453.653 116.749C453.653 130.319 455.668 140.847 459.699 148.334C463.885 155.665 469.777 159.331 477.374 159.331C481.405 159.331 485.591 158.239 489.933 156.055C494.429 153.871 499.933 150.206 506.445 145.059L509.235 151.142C502.103 158.473 495.049 163.854 488.072 167.285C481.25 170.561 473.963 172.199 466.211 172.199ZM504.817 172.433L501.793 155.821L499.468 151.142V30.1816C499.468 23.3186 498.46 18.5613 496.444 15.9097C494.584 13.1021 491.018 11.4643 485.746 10.9964L483.188 10.7624V2.80759C493.421 2.80759 502.259 2.65162 509.701 2.33967C517.298 1.87173 524.817 1.09184 532.259 0V141.549C532.259 148.724 533.345 153.637 535.515 156.289C537.841 158.785 542.182 160.344 548.539 160.968V168.923H543.887C537.221 168.923 530.631 169.157 524.12 169.625C517.608 170.249 511.173 171.185 504.817 172.433Z" fill="var(--fill-0, #FED966)"/>
<path d="M609.672 172.199C598.354 172.199 588.199 169.781 579.206 164.946C570.369 160.11 563.314 153.559 558.043 145.293C552.927 136.87 550.368 127.355 550.368 116.749C550.368 106.142 552.927 96.7058 558.043 88.439C563.314 80.0163 570.369 73.3872 579.206 68.5519C588.199 63.7167 598.354 61.299 609.672 61.299C620.99 61.299 631.068 63.7167 639.906 68.5519C648.898 73.3872 655.952 80.0163 661.069 88.439C666.34 96.7058 668.976 106.142 668.976 116.749C668.976 127.355 666.34 136.87 661.069 145.293C655.952 153.559 648.898 160.11 639.906 164.946C631.068 169.781 620.99 172.199 609.672 172.199ZM609.672 163.776C617.424 163.776 623.393 159.721 627.58 151.61C631.921 143.499 634.091 131.879 634.091 116.749C634.091 101.619 631.921 89.9988 627.58 81.888C623.393 73.7772 617.424 69.7218 609.672 69.7218C601.92 69.7218 595.873 73.7772 591.532 81.888C587.346 89.9988 585.253 101.619 585.253 116.749C585.253 131.879 587.346 143.499 591.532 151.61C595.873 159.721 601.92 163.776 609.672 163.776Z" fill="var(--fill-0, #FED966)"/>
<path d="M675.155 109.496V95.458H746.552V109.496H675.155Z" fill="var(--fill-0, #FED966)"/>
<path d="M749.441 169.625V161.67L753.628 160.968C757.039 160.344 759.597 159.487 761.302 158.395C763.008 157.147 764.17 155.119 764.791 152.312C765.411 149.348 765.721 145.215 765.721 139.911V30.1816C765.721 23.3186 764.713 18.5613 762.698 15.9097C760.837 13.1021 757.271 11.4643 752 10.9964L749.441 10.7624V2.80759C759.519 2.80759 768.279 2.65162 775.721 2.33967C783.318 1.87173 790.838 1.09184 798.28 0V139.911C798.28 145.215 798.59 149.348 799.21 152.312C799.83 155.119 800.993 157.147 802.699 158.395C804.559 159.487 807.195 160.344 810.606 160.968L814.792 161.67V169.625L782.233 168.923L749.441 169.625Z" fill="var(--fill-0, #FED966)"/>
<path d="M904.067 172.199C896.005 172.199 889.726 170.249 885.23 166.35C880.889 162.294 878.718 156.679 878.718 149.504V88.673C878.718 81.81 877.555 76.9747 875.229 74.1671C873.059 71.2036 869.183 69.7218 863.601 69.7218C859.26 69.7218 855.927 70.5017 853.601 72.0614C851.275 73.6212 850.113 75.9609 850.113 79.0804C850.113 79.8603 850.19 80.7182 850.345 81.654C850.655 82.5899 851.043 83.6817 851.508 84.9295C852.593 88.2051 853.136 90.6227 853.136 92.1825C853.136 95.9259 851.585 98.9675 848.485 101.307C845.539 103.491 841.585 104.583 836.624 104.583C831.818 104.583 828.019 103.335 825.228 100.839C822.437 98.3436 821.042 94.9121 821.042 90.5447C821.042 85.0855 823.29 80.1722 827.786 75.8049C832.283 71.2815 838.252 67.7721 845.694 65.2764C853.291 62.6248 861.741 61.299 871.043 61.299C884.532 61.299 894.61 64.4186 901.277 70.6576C907.944 76.8967 911.277 86.3333 911.277 98.9675V146.462C911.277 151.298 911.665 154.651 912.44 156.523C913.37 158.239 914.998 159.097 917.324 159.097C919.029 159.097 920.424 158.629 921.51 157.693C922.75 156.757 923.758 155.431 924.533 153.715L930.812 156.757C926.471 167.051 917.556 172.199 904.067 172.199ZM847.322 172.199C838.329 172.199 831.12 170.249 825.693 166.35C820.422 162.45 817.786 157.147 817.786 150.44C817.786 143.889 820.654 137.65 826.391 131.723C832.128 125.64 840.732 119.946 852.206 114.643C857.167 112.46 862.904 110.12 869.415 107.624C876.082 104.973 882.516 102.711 888.718 100.839L888.951 107.624C877.633 111.524 868.563 116.905 861.741 123.768C855.074 130.631 851.741 137.884 851.741 145.527C851.741 149.582 852.593 152.702 854.299 154.885C856.159 156.913 858.795 157.927 862.206 157.927C865.772 157.927 869.26 156.679 872.671 154.183C876.082 151.688 879.183 148.256 881.974 143.889C884.765 139.522 886.935 134.608 888.486 129.149L889.881 142.485C885.54 152.312 879.726 159.721 872.439 164.712C865.307 169.703 856.934 172.199 847.322 172.199Z" fill="var(--fill-0, #FED966)"/>
<path d="M1004.56 172.199C996.805 172.199 989.44 170.561 982.463 167.285C975.641 163.854 968.665 158.473 961.533 151.142L964.323 145.059C970.835 150.206 976.339 153.871 980.835 156.055C985.332 158.239 989.518 159.331 993.394 159.331C1000.84 159.331 1006.57 155.587 1010.6 148.1C1014.79 140.613 1016.88 130.163 1016.88 116.749C1016.88 103.335 1014.79 92.8844 1010.6 85.3975C1006.57 77.9106 1000.84 74.1671 993.394 74.1671C989.518 74.1671 985.332 75.259 980.835 77.4426C976.339 79.6263 970.835 83.2918 964.323 88.439L961.533 82.3559C968.665 75.025 975.641 69.7218 982.463 66.4463C989.44 63.0148 996.805 61.299 1004.56 61.299C1014.17 61.299 1022.46 63.6387 1029.44 68.318C1036.57 72.8413 1042.08 79.3144 1045.95 87.7371C1049.98 96.0039 1052 105.674 1052 116.749C1052 127.823 1049.98 137.572 1045.95 145.995C1042.08 154.261 1036.57 160.734 1029.44 165.414C1022.46 169.937 1014.17 172.199 1004.56 172.199ZM938.509 171.497V30.1816C938.509 23.3186 937.501 18.5613 935.485 15.9097C933.625 13.1021 930.059 11.4643 924.787 10.9964L922.229 10.7624V2.80759C932.307 2.80759 941.067 2.65162 948.509 2.33967C956.106 1.87173 963.626 1.09184 971.068 0V158.161L944.323 171.497H938.509Z" fill="var(--fill-0, #FED966)"/>
</g>
</svg>
