<svg width="640" height="680" viewBox="0 0 640 680" fill="none" xmlns="http://www.w3.org/2000/svg">
  <rect width="640" height="680" rx="38" fill="#81ABC3"/>
  <circle cx="320" cy="232" r="128" fill="#FFF9E9"/>
  <path d="M204 236c28-112 80-166 158-166 84 0 134 59 151 174-43-40-84-60-123-60-83 0-129 18-186 52Z" fill="#2C2C2C"/>
  <path d="M188 620c18-146 62-220 132-220s114 74 132 220H188Z" fill="#FED966"/>
  <path d="M322 425c48 0 83-24 106-73" stroke="#2C2C2C" stroke-width="18" stroke-linecap="round"/>
  <rect x="122" y="512" width="396" height="42" rx="12" fill="#2C2C2C"/>
  <rect x="164" y="578" width="312" height="28" rx="10" fill="#2C2C2C" fill-opacity=".72"/>
</svg>
